<svg xmlns="http://www.w3.org/2000/svg" width="89" height="39" fill="none" viewBox="0 0 89 39">
  <path fill="#5860A6" d="M27.243 21.4c-.381.033-.73.012-1.046-.062a2.295 2.295 0 0 1-.831-.357 1.917 1.917 0 0 1-.578-.62 2.045 2.045 0 0 1-.25-.836 2.176 2.176 0 0 1 .059-.747 1.91 1.91 0 0 1 .302-.638c.137-.184.303-.332.497-.443a1.47 1.47 0 0 1 .63-.202c.28-.025.521.025.724.148a.901.901 0 0 1 .407.547c-.417.036-.738.176-.964.42a1.108 1.108 0 0 0-.24.409 1.317 1.317 0 0 0-.05.51c.03.35.156.62.377.808.224.184.509.261.855.23.206-.017.396-.071.568-.16.173-.094.32-.213.44-.357.12-.143.208-.31.262-.499.058-.193.077-.395.059-.605-.034-.39-.202-.782-.503-1.18a5.022 5.022 0 0 0-.392-.447 17.018 17.018 0 0 0-.581-.585 19.44 19.44 0 0 1-.56-.563 5.133 5.133 0 0 1-.415-.493c-.302-.409-.471-.821-.508-1.238a1.911 1.911 0 0 1 .123-.88c.109-.28.277-.53.505-.75.228-.22.5-.4.818-.537a3.334 3.334 0 0 1 1.042-.256c.642-.056 1.17.05 1.587.32a1.537 1.537 0 0 1 .684 1.17c.03.33-.03.608-.18.833a.824.824 0 0 1-.626.372.875.875 0 0 1-.762-.31c.142-.122.248-.276.318-.462.073-.191.101-.39.083-.596-.022-.257-.116-.452-.28-.587-.166-.139-.38-.196-.645-.173-.16.014-.305.056-.436.126a.944.944 0 0 0-.317.28 1.192 1.192 0 0 0-.194.406 1.57 1.57 0 0 0 .204 1.194c.138.22.326.444.566.674.214.212.444.422.69.628.573.498.99.997 1.254 1.496.155.296.25.629.282.998.034.39-.015.758-.145 1.107a2.56 2.56 0 0 1-.607.924 3.238 3.238 0 0 1-.983.668 3.84 3.84 0 0 1-1.243.314Zm6.597.575a4.93 4.93 0 0 1-.575.021 1.355 1.355 0 0 1-.473-.1c-.393-.15-.614-.499-.662-1.047a4.525 4.525 0 0 1 .04-.963c.052-.377.138-.786.256-1.228.26-.972.605-1.914 1.035-2.826-.394.059-.704.146-.93.264-.22.114-.36.273-.416.478.035-.003.073.034.115.113a.61.61 0 0 1 .075.247.392.392 0 0 1-.163.355.848.848 0 0 1-.467.17.782.782 0 0 1-.541-.129c-.155-.108-.242-.275-.262-.5a1 1 0 0 1 .132-.582c.104-.194.262-.367.472-.518.214-.156.466-.284.755-.384a3.79 3.79 0 0 1 .953-.2c.167-.016.376-.022.627-.02.577-1.114 1.174-2 1.791-2.657.718-.765 1.403-1.175 2.057-1.233.389-.034.71-.005.96.087l-1.104 8.96-1.722.15.537-4.416a4.586 4.586 0 0 0-1.637-.292 20.323 20.323 0 0 0-.847 3.091c-.206 1.05-.282 1.886-.228 2.508.027.307.101.524.222.651Zm2.965-9.811c-.33.217-.663.6-1 1.152a12.49 12.49 0 0 0-.906 1.873 8.06 8.06 0 0 1 1.496.287l.41-3.312Zm4.549-.445c-.55.264-.96.635-1.232 1.113-.269.475-.374 1.04-.316 1.698.022.25.066.446.134.589a.61.61 0 0 0 .07.129.164.164 0 0 1 .03.08c-.432.037-.755-.02-.968-.175-.238-.167-.375-.459-.412-.875a1.877 1.877 0 0 1 .102-.786c.09-.266.228-.527.414-.783a4.03 4.03 0 0 1 .64-.69c.254-.223.533-.42.836-.592a4.77 4.77 0 0 1 1.933-.622c.18-.015.34-.022.481-.018l.749 7.345 1.875-7.54.835-.073-2.542 9.198-1.722.151-.907-8.15Zm7.405 7.798a2.626 2.626 0 0 1-.996-.083 1.803 1.803 0 0 1-.735-.407 1.927 1.927 0 0 1-.455-.63 2.508 2.508 0 0 1-.2-.794 3.264 3.264 0 0 1 .068-.977c.073-.34.192-.66.357-.96a3.12 3.12 0 0 1 .634-.82 2.62 2.62 0 0 1 .883-.53 1.71 1.71 0 0 1-.61-.594 1.854 1.854 0 0 1-.245-.779c-.027-.307.01-.618.113-.933.105-.32.264-.611.476-.877a2.63 2.63 0 0 1 .788-.675 2.475 2.475 0 0 1 1.7-.272c.215.044.404.121.567.233.17.114.307.261.409.44.102.18.163.39.184.631.016.175.007.34-.027.497a1.354 1.354 0 0 1-.158.413.917.917 0 0 1-.263.288.676.676 0 0 1-.33.123c-.218.02-.414-.071-.589-.272a.521.521 0 0 0 .187-.157c.06-.08.11-.173.152-.278a1.591 1.591 0 0 0 .095-.656c-.02-.225-.103-.393-.25-.501-.12-.088-.277-.123-.468-.106a.912.912 0 0 0-.472.182 1.276 1.276 0 0 0-.357.42 2.013 2.013 0 0 0-.243 1.191c.033.378.155.694.366.95.228.286.556.468.982.544-.397.125-.752.364-1.066.717a3.4 3.4 0 0 0-.648 1.133c-.146.432-.204.83-.172 1.191.031.362.144.64.337.835.215.217.516.308.9.274.191-.016.39-.06.595-.128.21-.073.407-.169.593-.287.431-.27.737-.602.918-.998l.285.099a3.778 3.778 0 0 1-1.297 1.772 3.929 3.929 0 0 1-.954.53c-.34.136-.692.22-1.054.251Zm6.951-8.342-1.132.098.092-.56a4.91 4.91 0 0 0 1.213-.254 6.974 6.974 0 0 0 1.747-.946l-1.121 9.109-1.722.15.923-7.597Zm4.925 7.144c-.708.062-1.262-.04-1.662-.307-.396-.268-.618-.681-.667-1.242a2 2 0 0 1 .051-.686c.056-.213.148-.402.274-.566.258-.332.616-.518 1.075-.558.486-.043.788.135.905.532-.327.068-.58.21-.757.425-.173.211-.247.47-.22.778.025.28.126.493.303.638.178.146.408.206.692.181.23-.02.437-.091.623-.213a1.49 1.49 0 0 0 .467-.512c.123-.21.21-.453.26-.728.054-.275.067-.573.04-.892-.05-.556-.202-.972-.457-1.248-.252-.28-.588-.401-1.008-.365a2.15 2.15 0 0 0-.7.197 4.63 4.63 0 0 0-.817.483l-.174-.102.532-4.605c.85.031 1.522.025 2.016-.018a6.974 6.974 0 0 0 1.033-.167 6.545 6.545 0 0 0 1.022-.354c.026.12.045.251.058.395.035.409-.037.742-.219 1.002-.205.292-.55.46-1.032.502-.26.022-.617.01-1.068-.037a8.342 8.342 0 0 1-.528-.053l-.426-.034-.29 2.208c.48-.293.964-.46 1.45-.503.32-.028.614.003.885.093.27.09.509.234.714.431.206.198.37.446.495.745.124.3.202.635.235 1.009.042.482 0 .931-.13 1.347a3.033 3.033 0 0 1-.597 1.105 2.99 2.99 0 0 1-1.015.765 3.97 3.97 0 0 1-1.363.354Zm5.074-4.596c-.91.08-1.418-.474-1.522-1.66a4.429 4.429 0 0 1 .07-1.295c.089-.412.233-.777.433-1.097.195-.319.434-.575.715-.768.28-.193.589-.305.924-.334.926-.08 1.44.474 1.545 1.665.039.443.011.87-.082 1.277a3.52 3.52 0 0 1-.434 1.097 2.58 2.58 0 0 1-.726.781 1.92 1.92 0 0 1-.923.334Zm4.373-5.347.858-.075-4.187 9.424-.858.075 4.187-9.424Zm-4.247 4.842c.152-.014.293-.11.422-.29.133-.184.243-.43.33-.735.087-.305.144-.653.173-1.044.028-.395.024-.8-.012-1.217-.028-.315-.075-.54-.142-.675-.07-.131-.171-.191-.304-.18-.151.014-.296.114-.432.303a2.649 2.649 0 0 0-.34.741 5.52 5.52 0 0 0-.206 1.024 5.97 5.97 0 0 0-.007 1.118c.03.343.086.59.17.744.08.154.197.224.348.21Zm4.69 4.248c-.911.08-1.419-.474-1.523-1.66a4.37 4.37 0 0 1 .07-1.29c.09-.41.234-.777.433-1.096.196-.319.434-.575.716-.768.28-.193.589-.305.923-.334.926-.081 1.441.472 1.545 1.659.039.443.012.87-.082 1.277a3.52 3.52 0 0 1-.433 1.097c-.2.323-.442.584-.726.781a1.919 1.919 0 0 1-.924.334Zm.125-.505c.152-.013.293-.11.422-.29a2.36 2.36 0 0 0 .33-.735c.087-.305.145-.653.173-1.044.029-.39.025-.794-.011-1.21-.028-.316-.075-.541-.142-.677-.07-.13-.172-.19-.304-.179-.198.018-.385.187-.561.508-.165.309-.288.704-.367 1.185a5.927 5.927 0 0 0-.058 1.487c.03.343.087.59.17.744.08.154.197.224.348.21Z"/>
  <path stroke="#5860A6" stroke-linecap="round" stroke-linejoin="round" stroke-width="1.5" d="M21 25.223c-2.833 3.666-10.8 11-20 11m0 0 4-5.5m-4 5.5c1.333.666 4.9 1.9 8.5 1.5"/>
  <path stroke="#5860A6" stroke-linecap="round" stroke-linejoin="round" stroke-width="1.5" d="M29.5 3.723c10-2.167 33.7-5 48.5 1 18.5 7.5 11.5 22-31.5 22.5s-52-14-12.5-23.5c31.6-7.6 47.167 2.5 51 8.5"/>
</svg>
