<svg xmlns="http://www.w3.org/2000/svg" width="51" height="102" fill="none" viewBox="0 0 51 102">
  <path fill="url(#a)" d="M29.938 2.158a1.5 1.5 0 0 0-3 0v26.81a1.5 1.5 0 1 0 3 0V2.159Z"/>
  <path fill="url(#b)" d="M50.981 2.158a1.5 1.5 0 0 0-3 0v97.83a1.5 1.5 0 1 0 3 0V2.158Z"/>
  <path fill="url(#c)" d="M28.438 71.678a1.5 1.5 0 0 1 1.5 1.5v26.81a1.5 1.5 0 1 1-3 0v-26.81a1.5 1.5 0 0 1 1.5-1.5Z"/>
  <path fill="url(#d)" d="M28.945 66.786a1.5 1.5 0 1 0 0-3H2.135a1.5 1.5 0 0 0 0 3h26.81Z"/>
  <path fill="url(#e)" d="M42.467.658a1.5 1.5 0 0 1 1.5 1.5v97.83a1.5 1.5 0 1 1-3 0V2.158a1.5 1.5 0 0 1 1.5-1.5Z"/>
  <path fill="url(#f)" d="M22.924 2.158a1.5 1.5 0 1 0-3 0v26.81a1.5 1.5 0 1 0 3 0V2.159Z"/>
  <path fill="url(#g)" d="M21.424 71.678a1.5 1.5 0 0 1 1.5 1.5v26.81a1.5 1.5 0 1 1-3 0v-26.81a1.5 1.5 0 0 1 1.5-1.5Z"/>
  <path fill="url(#h)" d="M28.945 59.772a1.5 1.5 0 1 0 0-3H2.135a1.5 1.5 0 0 0 0 3h26.81Z"/>
  <path fill="url(#i)" d="M30.445 44.244a1.5 1.5 0 0 1-1.5 1.5H2.135a1.5 1.5 0 1 1 0-3h26.81a1.5 1.5 0 0 1 1.5 1.5Z"/>
  <path fill="url(#j)" d="M36.953 2.158a1.5 1.5 0 0 0-3 0v97.83a1.5 1.5 0 1 0 3 0V2.158Z"/>
  <path fill="url(#k)" d="M14.41.658a1.5 1.5 0 0 1 1.5 1.5v26.81a1.5 1.5 0 1 1-3 0V2.159a1.5 1.5 0 0 1 1.5-1.5Z"/>
  <path fill="url(#l)" d="M15.91 73.178a1.5 1.5 0 0 0-3 0v26.81a1.5 1.5 0 1 0 3 0v-26.81Z"/>
  <path fill="url(#m)" d="M30.445 51.258a1.5 1.5 0 0 1-1.5 1.5H2.135a1.5 1.5 0 0 1 0-3h26.81a1.5 1.5 0 0 1 1.5 1.5Z"/>
  <path fill="url(#n)" d="M28.945 38.73a1.5 1.5 0 1 0 0-3H2.135a1.5 1.5 0 0 0 0 3h26.81Z"/>
  <defs>
    <linearGradient id="a" x1="46.986" x2="25.486" y1="26" y2="87" gradientUnits="userSpaceOnUse">
      <stop stop-color="#FFD7CB"/>
      <stop offset="1" stop-color="#FFD7CB" stop-opacity="0"/>
    </linearGradient>
    <linearGradient id="b" x1="46.986" x2="25.486" y1="26" y2="87" gradientUnits="userSpaceOnUse">
      <stop stop-color="#FFD7CB"/>
      <stop offset="1" stop-color="#FFD7CB" stop-opacity="0"/>
    </linearGradient>
    <linearGradient id="c" x1="46.986" x2="25.486" y1="26" y2="87" gradientUnits="userSpaceOnUse">
      <stop stop-color="#FFD7CB"/>
      <stop offset="1" stop-color="#FFD7CB" stop-opacity="0"/>
    </linearGradient>
    <linearGradient id="d" x1="46.986" x2="25.486" y1="26" y2="87" gradientUnits="userSpaceOnUse">
      <stop stop-color="#FFD7CB"/>
      <stop offset="1" stop-color="#FFD7CB" stop-opacity="0"/>
    </linearGradient>
    <linearGradient id="e" x1="46.986" x2="25.486" y1="26" y2="87" gradientUnits="userSpaceOnUse">
      <stop stop-color="#FFD7CB"/>
      <stop offset="1" stop-color="#FFD7CB" stop-opacity="0"/>
    </linearGradient>
    <linearGradient id="f" x1="46.986" x2="25.486" y1="26" y2="87" gradientUnits="userSpaceOnUse">
      <stop stop-color="#FFD7CB"/>
      <stop offset="1" stop-color="#FFD7CB" stop-opacity="0"/>
    </linearGradient>
    <linearGradient id="g" x1="46.986" x2="25.486" y1="26" y2="87" gradientUnits="userSpaceOnUse">
      <stop stop-color="#FFD7CB"/>
      <stop offset="1" stop-color="#FFD7CB" stop-opacity="0"/>
    </linearGradient>
    <linearGradient id="h" x1="46.986" x2="25.486" y1="26" y2="87" gradientUnits="userSpaceOnUse">
      <stop stop-color="#FFD7CB"/>
      <stop offset="1" stop-color="#FFD7CB" stop-opacity="0"/>
    </linearGradient>
    <linearGradient id="i" x1="46.986" x2="25.486" y1="26" y2="87" gradientUnits="userSpaceOnUse">
      <stop stop-color="#FFD7CB"/>
      <stop offset="1" stop-color="#FFD7CB" stop-opacity="0"/>
    </linearGradient>
    <linearGradient id="j" x1="46.986" x2="25.486" y1="26" y2="87" gradientUnits="userSpaceOnUse">
      <stop stop-color="#FFD7CB"/>
      <stop offset="1" stop-color="#FFD7CB" stop-opacity="0"/>
    </linearGradient>
    <linearGradient id="k" x1="46.986" x2="25.486" y1="26" y2="87" gradientUnits="userSpaceOnUse">
      <stop stop-color="#FFD7CB"/>
      <stop offset="1" stop-color="#FFD7CB" stop-opacity="0"/>
    </linearGradient>
    <linearGradient id="l" x1="46.986" x2="25.486" y1="26" y2="87" gradientUnits="userSpaceOnUse">
      <stop stop-color="#FFD7CB"/>
      <stop offset="1" stop-color="#FFD7CB" stop-opacity="0"/>
    </linearGradient>
    <linearGradient id="m" x1="46.986" x2="25.486" y1="26" y2="87" gradientUnits="userSpaceOnUse">
      <stop stop-color="#FFD7CB"/>
      <stop offset="1" stop-color="#FFD7CB" stop-opacity="0"/>
    </linearGradient>
    <linearGradient id="n" x1="46.986" x2="25.486" y1="26" y2="87" gradientUnits="userSpaceOnUse">
      <stop stop-color="#FFD7CB"/>
      <stop offset="1" stop-color="#FFD7CB" stop-opacity="0"/>
    </linearGradient>
  </defs>
</svg>
